Coordinates
version=1
nRows=4
nColumns=107
inDegrees=yes

Units are S.I. units (second, meters, Newtons, ...)
If the header above contains a line with 'inDegrees', this indicates whether rotational values are in degrees (yes) or radians (no).

endheader
time	sternoclavicular_r2	sternoclavicular_r3	unrotscap_r3	unrotscap_r2	acromioclavicular_r2	acromioclavicular_r3	acromioclavicular_r1	unrothum_r1	unrothum_r3	unrothum_r2	elv_angle	shoulder_elv	shoulder1_r2	shoulder_rot	elbow_flexion	pro_sup	deviation	flexion	proximal_distal_r1	proximal_distal_r3	cmc_flexion	cmc_abduction	mp_flexion	ip_flexion	mcp2_flexion	mcp2_abduction	pm2_flexion	md2_flexion	mcp3_flexion	mcp3_abduction	pm3_flexion	md3_flexion	mcp4_flexion	mcp4_abduction	pm4_flexion	md4_flexion	mcp5_flexion	mcp5_abduction	pm5_flexion	md5_flexion	bicpt_tx	bicpt_ty	bicpt_tz	bicpt2_tx	bicpt2_ty	bicpt2_tz	ptpt_tx	ptpt_ty	ptpt_tz	FCUpt_tx	FCUpt_ty	FCUpt_tz	EDCpt_tx	EDCpt_ty	EDCpt_tz	APLpt_tx	APLpt_ty	APLpt_tz	FPLpt_tx	FPLpt_ty	FPLpt_tz	FPLpt2_tx	FPLpt2_ty	FPLpt2_tz	PEC1pt2_tx	PEC1pt2_ty	PEC1pt2_tz	PEC1pt3_tx	PEC1pt3_ty	PEC1pt3_tz	PEC2pt2_tx	PEC2pt2_ty	PEC2pt2_tz	PEC2pt3_tx	PEC2pt3_ty	PEC2pt3_tz	PEC3pt2_tx	PEC3pt2_ty	PEC3pt2_tz	PEC3pt3_tx	PEC3pt3_ty	PEC3pt3_tz	DELT2pt2a_tx	DELT2pt2a_ty	DELT2pt2a_tz	DELT2pt2_tx	DELT2pt2_ty	DELT2pt2_tz	LAT1pt2_tx	LAT1pt2_ty	LAT1pt2_tz	LAT1pt3_tx	LAT1pt3_ty	LAT1pt3_tz	LAT2pt2_tx	LAT2pt2_ty	LAT2pt2_tz	LAT2pt3_tx	LAT2pt3_ty	LAT2pt3_tz	LAT3pt2_tx	LAT3pt2_ty	LAT3pt2_tz	LAT3pt3_tx	LAT3pt3_ty	LAT3pt3_tz
      0.60000000	     -0.31535517	      0.13356956	     -0.13356956	      0.31535517	     -0.06385301	      0.51603754	      0.23195532	     -0.23195532	     -0.51603754	      0.06385301	    100.18005453	     74.66313853	     -1.74847180	    -29.58478138	     28.88890060	     11.90237805	     -0.06109596	     -0.99895707	     -0.08597106	     -0.49947853	    -12.23435869	      7.17060390	    -26.81530439	      5.36927479	     30.41746351	     13.08940690	     10.02444191	    -34.69500438	     55.28419962	      9.56095974	     85.76521671	     68.99843717	     47.08259333	     -3.76968010	     93.48532531	     55.04761523	      4.74979051	    -10.27623857	    -13.20601628	      4.96980758	      0.00085556	     -0.03091111	     -0.00483333	      0.01561885	     -0.01804781	     -0.00991603	      0.00667055	     -0.06546867	     -0.00100880	      0.00507324	     -0.18396748	      0.00011031	     -0.00142828	      0.00035910	      0.00013419	      0.00018638	      0.00007455	      0.00037276	      0.00023857	      0.00071570	      0.00040258	     -0.00204424	      0.00038901	      0.00046681	      0.00244729	      0.00858627	      0.00597306	     -0.00800555	      0.01932947	     -0.01833396	      0.00244729	      0.00858627	      0.00597306	      0.00053923	      0.01791917	     -0.00941586	      0.00389060	      0.00477471	      0.01582576	      0.00000000	      0.00745323	      0.00000000	     -0.00701005	     -0.03239553	     -0.00614364	      0.01869280	     -0.00074295	     -0.00729769	     -0.00087107	      0.01460080	     -0.00597306	      0.00240581	      0.02107161	     -0.01742141	     -0.00584862	      0.01265126	     -0.00535086	     -0.01219499	      0.02671283	     -0.02990676	     -0.02289672	      0.01414453	     -0.00717596	     -0.01518152	      0.03086079	     -0.03737308
      0.63333333	     -0.31464823	      0.13327014	     -0.13327014	      0.31464823	     -0.06370987	      0.51488073	      0.23143535	     -0.23143535	     -0.51488073	      0.06370987	    100.40406545	     74.49576616	     -1.75238152	    -30.60439645	     28.90928019	     12.55848118	     -0.06398991	     -0.99943133	     -0.09019505	     -0.49971566	    -12.21990161	      7.73888940	    -28.14609663	      6.77507557	     30.70655400	     13.16585622	      9.45985421	    -33.25035719	     54.92207755	      9.42296631	     85.44478518	     68.77449322	     48.03244641	     -4.11263635	     92.77983988	     55.27304771	      4.50262717	    -10.42538800	    -12.61916574	      4.90414625	      0.00085623	     -0.03091345	     -0.00483371	      0.01566176	     -0.01805335	     -0.00987154	      0.00662207	     -0.06550001	     -0.00106165	      0.00513367	     -0.18395900	      0.00009193	     -0.00150701	      0.00038016	      0.00013936	      0.00018606	      0.00007442	      0.00037212	      0.00023815	      0.00071446	      0.00040189	     -0.00203916	      0.00038846	      0.00046615	      0.00244181	      0.00856702	      0.00595967	     -0.00798761	      0.01928614	     -0.01829286	      0.00244181	      0.00856702	      0.00595967	      0.00053803	      0.01787900	     -0.00939475	      0.00388416	      0.00476401	      0.01580963	      0.00000000	      0.00741963	      0.00000000	     -0.00699433	     -0.03232291	     -0.00611573	      0.01914350	     -0.00077778	     -0.00779532	     -0.00086912	      0.01456807	     -0.00595967	      0.00240042	      0.02102438	     -0.01738236	     -0.00583551	      0.01262290	     -0.00533887	     -0.01216765	      0.02665295	     -0.02983972	     -0.02284539	      0.01411282	     -0.00715988	     -0.01514749	      0.03079161	     -0.03728930
      0.66666667	     -0.31653460	      0.13406912	     -0.13406912	      0.31653460	     -0.06409182	      0.51796753	      0.23282284	     -0.23282284	     -0.51796753	      0.06409182	     99.87501999	     74.94238055	     -1.74314794	    -27.96001086	     28.77797918	     10.17094587	     -0.05692536	     -1.02036300	     -0.07990809	     -0.51018150	    -12.09522053	      7.74702513	    -27.68008051	      7.00998250	     30.59783136	     13.12097174	      9.93812004	    -33.01650908	     55.70462897	      9.32521850	     85.54402484	     67.98364229	     47.63700813	     -4.32252530	     92.58462927	     55.53760093	      4.97822452	    -10.48656754	    -12.79669593	      4.92425102	      0.00085189	     -0.03089840	     -0.00483129	      0.01550095	     -0.01801768	     -0.01003059	      0.00679848	     -0.06538594	     -0.00086932	      0.00491439	     -0.18398926	      0.00016035	     -0.00122051	      0.00030413	      0.00011946	      0.00017208	      0.00006883	      0.00034416	      0.00022026	      0.00066079	      0.00037170	     -0.00199474	      0.00038366	      0.00046039	      0.00245645	      0.00861838	      0.00599540	     -0.00803550	      0.01940177	     -0.01840253	      0.00245645	      0.00861838	      0.00599540	      0.00054125	      0.01798619	     -0.00945107	      0.00390131	      0.00479257	      0.01585252	      0.00000000	      0.00750945	      0.00000000	     -0.00703626	     -0.03251669	     -0.00619033	      0.01794619	     -0.00068807	     -0.00653100	     -0.00087433	      0.01465541	     -0.00599540	      0.00241481	      0.02115042	     -0.01748657	     -0.00587049	      0.01269858	     -0.00537088	     -0.01224060	      0.02681274	     -0.03001861	     -0.02298235	      0.01419743	     -0.00720280	     -0.01523830	      0.03097621	     -0.03751286
      0.70000000	     -0.31653621	      0.13406980	     -0.13406980	      0.31653621	     -0.06409214	      0.51797016	      0.23282402	     -0.23282402	     -0.51797016	      0.06409214	     99.86299404	     74.94276061	     -1.74293805	    -27.96360814	     28.77088221	     10.17201414	     -0.05691571	     -1.02036879	     -0.07989410	     -0.51018439	    -12.09619599	      7.74653343	    -27.68081164	      7.00969503	     30.59970703	     13.12059217	      9.93859561	    -33.01620656	     55.70484540	      9.32541257	     85.54425337	     67.98367401	     47.63667870	     -4.32239399	     92.58479101	     55.53765222	      4.97680127	    -10.48635904	    -12.79732591	      4.92421435	      0.00085165	     -0.03089758	     -0.00483115	      0.01550097	     -0.01801575	     -0.01003049	      0.00679840	     -0.06538600	     -0.00086941	      0.00491449	     -0.18398924	      0.00016034	     -0.00122064	      0.00030417	      0.00011945	      0.00017206	      0.00006883	      0.00034413	      0.00022024	      0.00066073	      0.00037166	     -0.00199511	      0.00038369	      0.00046043	      0.00245646	      0.00861842	      0.00599543	     -0.00803554	      0.01940186	     -0.01840263	      0.00245646	      0.00861842	      0.00599543	      0.00054125	      0.01798628	     -0.00945112	      0.00390132	      0.00479260	      0.01585255	      0.00000000	      0.00750953	      0.00000000	     -0.00703630	     -0.03251686	     -0.00619039	      0.01794755	     -0.00068820	     -0.00653298	     -0.00087433	      0.01465549	     -0.00599543	      0.00241482	      0.02115053	     -0.01748666	     -0.00587052	      0.01269865	     -0.00537090	     -0.01224066	      0.02681288	     -0.03001876	     -0.02298247	      0.01419750	     -0.00720284	     -0.01523837	      0.03097637	     -0.03751305
